<svg width="98" height="32" viewBox="0 0 98 32" fill="none" xmlns="http://www.w3.org/2000/svg">
<path d="M18.0645 1.53216V2.59365C18.0645 3.28207 18.5343 3.87816 19.2056 4.0634C24.2067 5.4431 27.871 9.97251 27.871 15.3556C27.871 21.8351 22.5616 27.0799 16 27.0799C9.43944 27.0799 4.12906 21.8362 4.12906 15.3556C4.12906 9.97327 7.79267 5.44323 12.7943 4.0634C13.4658 3.87816 13.9355 3.28195 13.9355 2.59346V1.53267C13.9355 0.531707 12.9785 -0.197493 11.9971 0.0522213C5.07119 1.81418 -0.0390653 8.04106 0.00022502 15.4405C0.0466766 24.1733 7.19228 31.1763 16.0345 31.1579C24.8552 31.1395 32 24.0716 32 15.3556C32 7.98759 26.8942 1.79755 19.9864 0.0480159C19.0115 -0.198895 18.0645 0.538142 18.0645 1.53216Z" fill="#1D4ED8"/>
<path d="M48.0753 16.493C48.0753 17.447 47.9163 18.323 47.5983 19.121C47.2803 19.919 46.8333 20.606 46.2573 21.182C45.6813 21.758 44.9883 22.205 44.1783 22.523C43.3683 22.841 42.4683 23 41.4783 23H36.5193V9.986H41.4783C42.4683 9.986 43.3683 10.148 44.1783 10.472C44.9883 10.79 45.6813 11.237 46.2573 11.813C46.8333 12.383 47.2803 13.067 47.5983 13.865C47.9163 14.663 48.0753 15.539 48.0753 16.493ZM45.5913 16.493C45.5913 15.779 45.4953 15.14 45.3033 14.576C45.1173 14.006 44.8443 13.526 44.4843 13.136C44.1303 12.74 43.6983 12.437 43.1883 12.227C42.6843 12.017 42.1143 11.912 41.4783 11.912H38.9493V21.074H41.4783C42.1143 21.074 42.6843 20.969 43.1883 20.759C43.6983 20.549 44.1303 20.249 44.4843 19.859C44.8443 19.463 45.1173 18.983 45.3033 18.419C45.4953 17.849 45.5913 17.207 45.5913 16.493ZM53.8246 13.622C54.5086 13.622 55.1296 13.733 55.6876 13.955C56.2516 14.177 56.7316 14.492 57.1276 14.9C57.5296 15.308 57.8386 15.806 58.0546 16.394C58.2706 16.982 58.3786 17.639 58.3786 18.365C58.3786 19.097 58.2706 19.757 58.0546 20.345C57.8386 20.933 57.5296 21.434 57.1276 21.848C56.7316 22.262 56.2516 22.58 55.6876 22.802C55.1296 23.024 54.5086 23.135 53.8246 23.135C53.1346 23.135 52.5076 23.024 51.9436 22.802C51.3796 22.58 50.8966 22.262 50.4946 21.848C50.0986 21.434 49.7896 20.933 49.5676 20.345C49.3516 19.757 49.2436 19.097 49.2436 18.365C49.2436 17.639 49.3516 16.982 49.5676 16.394C49.7896 15.806 50.0986 15.308 50.4946 14.9C50.8966 14.492 51.3796 14.177 51.9436 13.955C52.5076 13.733 53.1346 13.622 53.8246 13.622ZM53.8246 21.425C54.5926 21.425 55.1596 21.167 55.5256 20.651C55.8976 20.135 56.0836 19.379 56.0836 18.383C56.0836 17.387 55.8976 16.628 55.5256 16.106C55.1596 15.584 54.5926 15.323 53.8246 15.323C53.0446 15.323 52.4656 15.587 52.0876 16.115C51.7156 16.637 51.5296 17.393 51.5296 18.383C51.5296 19.373 51.7156 20.129 52.0876 20.651C52.4656 21.167 53.0446 21.425 53.8246 21.425ZM60.0746 23V13.766H61.4336C61.7216 13.766 61.9106 13.901 62.0006 14.171L62.1446 14.855C62.3066 14.675 62.4746 14.51 62.6486 14.36C62.8286 14.21 63.0176 14.081 63.2156 13.973C63.4196 13.865 63.6356 13.781 63.8636 13.721C64.0976 13.655 64.3526 13.622 64.6286 13.622C65.2106 13.622 65.6876 13.781 66.0596 14.099C66.4376 14.411 66.7196 14.828 66.9056 15.35C67.0496 15.044 67.2296 14.783 67.4456 14.567C67.6616 14.345 67.8986 14.165 68.1566 14.027C68.4146 13.889 68.6876 13.787 68.9756 13.721C69.2696 13.655 69.5636 13.622 69.8576 13.622C70.3676 13.622 70.8206 13.7 71.2166 13.856C71.6126 14.012 71.9456 14.24 72.2156 14.54C72.4856 14.84 72.6896 15.206 72.8276 15.638C72.9716 16.07 73.0436 16.565 73.0436 17.123V23H70.8206V17.123C70.8206 16.535 70.6916 16.094 70.4336 15.8C70.1756 15.5 69.7976 15.35 69.2996 15.35C69.0716 15.35 68.8586 15.389 68.6606 15.467C68.4686 15.545 68.2976 15.659 68.1476 15.809C68.0036 15.953 67.8896 16.136 67.8056 16.358C67.7216 16.58 67.6796 16.835 67.6796 17.123V23H65.4476V17.123C65.4476 16.505 65.3216 16.055 65.0696 15.773C64.8236 15.491 64.4606 15.35 63.9806 15.35C63.6566 15.35 63.3536 15.431 63.0716 15.593C62.7956 15.749 62.5376 15.965 62.2976 16.241V23H60.0746ZM80.0346 19.058C79.3926 19.088 78.8526 19.145 78.4146 19.229C77.9766 19.307 77.6256 19.409 77.3616 19.535C77.0976 19.661 76.9086 19.808 76.7946 19.976C76.6806 20.144 76.6236 20.327 76.6236 20.525C76.6236 20.915 76.7376 21.194 76.9656 21.362C77.1996 21.53 77.5026 21.614 77.8746 21.614C78.3306 21.614 78.7236 21.533 79.0536 21.371C79.3896 21.203 79.7166 20.951 80.0346 20.615V19.058ZM74.9406 15.053C76.0026 14.081 77.2806 13.595 78.7746 13.595C79.3146 13.595 79.7976 13.685 80.2236 13.865C80.6496 14.039 81.0096 14.285 81.3036 14.603C81.5976 14.915 81.8196 15.29 81.9696 15.728C82.1256 16.166 82.2036 16.646 82.2036 17.168V23H81.1956C80.9856 23 80.8236 22.97 80.7096 22.91C80.5956 22.844 80.5056 22.715 80.4396 22.523L80.2416 21.857C80.0076 22.067 79.7796 22.253 79.5576 22.415C79.3356 22.571 79.1046 22.703 78.8646 22.811C78.6246 22.919 78.3666 23 78.0906 23.054C77.8206 23.114 77.5206 23.144 77.1906 23.144C76.8006 23.144 76.4406 23.093 76.1106 22.991C75.7806 22.883 75.4956 22.724 75.2556 22.514C75.0156 22.304 74.8296 22.043 74.6976 21.731C74.5656 21.419 74.4996 21.056 74.4996 20.642C74.4996 20.408 74.5386 20.177 74.6166 19.949C74.6946 19.715 74.8206 19.493 74.9946 19.283C75.1746 19.073 75.4056 18.875 75.6876 18.689C75.9696 18.503 76.3146 18.341 76.7226 18.203C77.1366 18.065 77.6166 17.954 78.1626 17.87C78.7086 17.78 79.3326 17.726 80.0346 17.708V17.168C80.0346 16.55 79.9026 16.094 79.6386 15.8C79.3746 15.5 78.9936 15.35 78.4956 15.35C78.1356 15.35 77.8356 15.392 77.5956 15.476C77.3616 15.56 77.1546 15.656 76.9746 15.764C76.7946 15.866 76.6296 15.959 76.4796 16.043C76.3356 16.127 76.1736 16.169 75.9936 16.169C75.8376 16.169 75.7056 16.13 75.5976 16.052C75.4896 15.968 75.4026 15.872 75.3366 15.764L74.9406 15.053ZM86.6012 13.766V23H84.3692V13.766H86.6012ZM86.9072 11.075C86.9072 11.267 86.8682 11.447 86.7902 11.615C86.7122 11.783 86.6072 11.93 86.4752 12.056C86.3492 12.182 86.1992 12.284 86.0252 12.362C85.8512 12.434 85.6652 12.47 85.4672 12.47C85.2752 12.47 85.0922 12.434 84.9182 12.362C84.7502 12.284 84.6032 12.182 84.4772 12.056C84.3512 11.93 84.2492 11.783 84.1712 11.615C84.0992 11.447 84.0632 11.267 84.0632 11.075C84.0632 10.877 84.0992 10.691 84.1712 10.517C84.2492 10.343 84.3512 10.193 84.4772 10.067C84.6032 9.941 84.7502 9.842 84.9182 9.77C85.0922 9.692 85.2752 9.653 85.4672 9.653C85.6652 9.653 85.8512 9.692 86.0252 9.77C86.1992 9.842 86.3492 9.941 86.4752 10.067C86.6072 10.193 86.7122 10.343 86.7902 10.517C86.8682 10.691 86.9072 10.877 86.9072 11.075ZM90.9465 14.9C91.1325 14.714 91.3275 14.543 91.5315 14.387C91.7415 14.225 91.9605 14.09 92.1885 13.982C92.4225 13.868 92.6715 13.781 92.9355 13.721C93.1995 13.655 93.4875 13.622 93.7995 13.622C94.3035 13.622 94.7505 13.709 95.1405 13.883C95.5305 14.051 95.8545 14.291 96.1125 14.603C96.3765 14.909 96.5745 15.278 96.7065 15.71C96.8445 16.136 96.9135 16.607 96.9135 17.123V23H94.6905V17.123C94.6905 16.559 94.5615 16.124 94.3035 15.818C94.0455 15.506 93.6525 15.35 93.1245 15.35C92.7405 15.35 92.3805 15.437 92.0445 15.611C91.7085 15.785 91.3905 16.022 91.0905 16.322V23H88.8675V13.766H90.2265C90.5145 13.766 90.7035 13.901 90.7935 14.171L90.9465 14.9Z" fill="white"/>
</svg>
